<svg width="1439" height="552" viewBox="0 0 1439 552" fill="none" xmlns="http://www.w3.org/2000/svg">
<path opacity="0.2" d="M-11 67.4561C57.4076 128.79 140.104 106.397 215.5 249C326 458 352.113 428.333 450.5 473.5" stroke="#F0EDE8"/>
<path opacity="0.2" d="M140 58.374C208.408 119.708 291.104 97.3145 366.5 239.918C477 448.918 508.613 426.333 607 471.5" stroke="#F0EDE8"/>
<path opacity="0.2" d="M-5.99996 80.1357C62.4076 141.47 145.104 119.076 220.5 261.68C331 470.68 362.613 448.095 461 493.262" stroke="#F0EDE8"/>
<path opacity="0.2" d="M1437 60.9998C1346 73.6664 1300.5 126 1191.5 312C1075.13 510.583 920 428.5 822 474.5" stroke="#F0EDE8"/>
<path opacity="0.2" d="M1435 68.4998C1347.5 54.9999 1216.85 136.032 1087.5 308.5C954 486.5 849 425.5 751 471.5" stroke="#F0EDE8"/>
<path opacity="0.2" d="M1438.5 63.9998C1351 50.4999 1216.85 129.978 1087.5 302.447C954 480.447 841.5 427 743.5 473" stroke="#F0EDE8"/>
</svg>
