<svg width="439" height="551" viewBox="0 0 439 551" fill="none" xmlns="http://www.w3.org/2000/svg">
<path d="M152.5 16H1V450C1 505.228 45.7715 550 101 550H338C393.228 550 438 505.228 438 450V16H302" stroke="#577B6D" stroke-width="2"/>
<path d="M224.13 27.6471C220.314 29.5507 212.683 30.6583 208 22.3515C208.474 21.7285 209.887 20.3579 211.746 19.8595M226.94 27.6471C229.819 29.343 238.491 30.6237 243 22.3515C242.699 21.8208 241.55 20.5794 239.358 19.8595M221.632 25.6742C217.435 24.5205 209.672 19.6242 212.197 9.26841C213.134 9.06074 215.638 8.97767 218.164 10.3068M229.298 25.6742C233.449 24.7628 241.162 20.2056 238.803 9.26841C237.947 9.03767 235.542 8.9223 232.767 10.3068M225.552 25.6742C220.8 22.8361 215.18 10.549 225.552 2C230.166 5.3227 235.924 16.6406 225.552 25.6742Z" stroke="#577B6D" stroke-width="2"/>
<circle cx="277.5" cy="15.5" r="3.5" fill="#577B6D"/>
<circle cx="173.5" cy="15.5" r="3.5" fill="#577B6D"/>
</svg>
