<svg width="522" height="636" viewBox="0 0 522 636" fill="none" xmlns="http://www.w3.org/2000/svg">
<path d="M20 255.5V1H221C386.685 1 521 135.315 521 301V635H20V366" stroke="#577B6D" stroke-width="2"/>
<path d="M18.1298 322.647C14.3142 324.551 6.68285 325.658 2 317.352C2.47407 316.729 3.88702 315.358 5.74628 314.86M20.9395 322.647C23.8186 324.343 32.4906 325.624 37 317.352C36.6994 316.821 35.55 315.579 33.3578 314.86M15.6323 320.674C11.4351 319.521 3.67195 314.624 6.19723 304.268C7.1338 304.061 9.63826 303.978 12.1635 305.307M23.2983 320.674C27.4493 319.763 35.1615 315.206 32.8028 304.268C31.9471 304.038 29.5421 303.922 26.7671 305.307M19.552 320.674C14.7998 317.836 9.18038 305.549 19.552 297C24.1655 300.323 29.9237 311.641 19.552 320.674Z" stroke="#577B6D" stroke-width="2"/>
<circle cx="20.5" cy="276.5" r="3.5" fill="#577B6D"/>
<circle cx="20.5" cy="344.5" r="3.5" fill="#577B6D"/>
</svg>
