<svg width="29" height="29" viewBox="0 0 29 29" fill="none" xmlns="http://www.w3.org/2000/svg">
<g clip-path="url(#clip0_5_75)">
<path d="M19.9375 0H9.0625C6.65898 0 4.35389 0.954796 2.65434 2.65434C0.954796 4.35389 0 6.65898 0 9.0625L0 19.9375C0 22.341 0.954796 24.6461 2.65434 26.3457C4.35389 28.0452 6.65898 29 9.0625 29H19.9375C22.341 29 24.6461 28.0452 26.3457 26.3457C28.0452 24.6461 29 22.341 29 19.9375V9.0625C29 6.65898 28.0452 4.35389 26.3457 2.65434C24.6461 0.954796 22.341 0 19.9375 0V0ZM26.2812 19.9375C26.2812 23.4356 23.4356 26.2812 19.9375 26.2812H9.0625C5.56437 26.2812 2.71875 23.4356 2.71875 19.9375V9.0625C2.71875 5.56437 5.56437 2.71875 9.0625 2.71875H19.9375C23.4356 2.71875 26.2812 5.56437 26.2812 9.0625V19.9375Z" fill="#929292"/>
<path d="M14.5 7.25C12.5772 7.25 10.7331 8.01384 9.37348 9.37348C8.01384 10.7331 7.25 12.5772 7.25 14.5C7.25 16.4228 8.01384 18.2669 9.37348 19.6265C10.7331 20.9862 12.5772 21.75 14.5 21.75C16.4228 21.75 18.2669 20.9862 19.6265 19.6265C20.9862 18.2669 21.75 16.4228 21.75 14.5C21.75 12.5772 20.9862 10.7331 19.6265 9.37348C18.2669 8.01384 16.4228 7.25 14.5 7.25ZM14.5 19.0312C13.2987 19.0298 12.147 18.552 11.2975 17.7025C10.448 16.853 9.97019 15.7013 9.96875 14.5C9.96875 12.0006 12.0024 9.96875 14.5 9.96875C16.9976 9.96875 19.0312 12.0006 19.0312 14.5C19.0312 16.9976 16.9976 19.0312 14.5 19.0312Z" fill="#929292"/>
<path d="M22.2937 7.67236C22.8272 7.67236 23.2598 7.23984 23.2598 6.7063C23.2598 6.17276 22.8272 5.74023 22.2937 5.74023C21.7602 5.74023 21.3276 6.17276 21.3276 6.7063C21.3276 7.23984 21.7602 7.67236 22.2937 7.67236Z" fill="#929292"/>
</g>
<defs>
<clipPath id="clip0_5_75">
<rect width="29" height="29" fill="white"/>
</clipPath>
</defs>
</svg>
