<svg width="31" height="27" viewBox="0 0 31 27" fill="none" xmlns="http://www.w3.org/2000/svg">
<g clip-path="url(#clip0_5_79)">
<path d="M31 3.1959C29.8339 3.74115 28.6006 4.10354 27.3381 4.27191C28.6686 3.42566 29.6633 2.08562 30.1338 0.505723C28.8883 1.29755 27.5257 1.85523 26.1049 2.15465C25.2335 1.15663 24.1021 0.46272 22.8579 0.16315C21.6137 -0.136419 20.3142 -0.0277922 19.1284 0.474908C17.9426 0.977608 16.9252 1.85113 16.2087 2.98189C15.4922 4.11265 15.1096 5.44835 15.1106 6.81532C15.1058 7.33694 15.1552 7.85753 15.2579 8.36741C12.7297 8.23454 10.256 7.53115 7.99866 6.30324C5.74133 5.07532 3.75118 3.35053 2.1583 1.24162C1.34051 2.74027 1.08708 4.51699 1.44975 6.20913C1.81241 7.90127 2.76383 9.38125 4.10981 10.347C3.10424 10.3179 2.11994 10.0301 1.23984 9.50786V9.58209C1.24149 11.1553 1.74871 12.6799 2.67611 13.8992C3.60352 15.1185 4.89448 15.9581 6.3317 16.2767C5.78798 16.4303 5.22763 16.5058 4.66536 16.501C4.26162 16.5087 3.85829 16.4697 3.46235 16.3846C3.8731 17.7367 4.66471 18.9191 5.72822 19.769C6.79172 20.6188 8.07483 21.0945 9.40091 21.1303C7.15135 23.0162 4.37701 24.0393 1.52123 24.0361C1.01281 24.0397 0.504688 24.0084 0 23.9423C2.906 25.9497 6.29228 27.0116 9.74935 26.9996C21.4439 26.9996 27.8379 16.6151 27.8379 7.61363C27.8379 7.31232 27.8282 7.02181 27.8146 6.73299C29.0682 5.77134 30.1476 4.57271 31 3.1959Z" fill="#929292"/>
</g>
<defs>
<clipPath id="clip0_5_79">
<rect width="31" height="27" fill="white"/>
</clipPath>
</defs>
</svg>
