<svg width="66" height="66" viewBox="0 0 66 66" fill="none" xmlns="http://www.w3.org/2000/svg">
<circle cx="33" cy="33" r="33" fill="#577B6D"/>
<path fill-rule="evenodd" clip-rule="evenodd" d="M29.0219 19.4799C29.1618 17.6062 29.9431 16.498 30.8079 15.8542C31.6932 15.1951 32.6968 15.0004 33.2768 15.0215L33.2771 15.0215C33.8777 15.043 34.8428 15.2874 35.6995 15.9622C36.541 16.625 37.3007 17.7203 37.4951 19.497C37.7704 22.0145 36.2385 24.1683 34.6729 25.5681C33.8601 26.295 32.6731 26.3246 31.8607 25.6306C30.3213 24.3156 28.8191 22.1953 29.0219 19.4799ZM30.2108 15.0521C31.2943 14.2454 32.5259 13.9936 33.3128 14.0222L33.3131 14.0222C34.1043 14.0505 35.2788 14.3579 36.3183 15.1766C37.373 16.0074 38.266 17.3476 38.4891 19.3883C38.7859 22.1015 37.3208 24.3647 35.8127 25.867C36.1532 26.1382 36.4403 26.4553 36.6369 26.7994C37.3131 27.9828 38.3079 28.6333 39.4802 29.3742L39.5558 29.4219C40.6962 30.1423 41.9747 30.9498 43.0223 32.4242C44.0053 33.8076 44.5844 35.0284 44.9076 36.3764C45.5108 38.8921 43.1751 41.1418 40.6853 40.3714C39.3578 39.9606 38.2091 39.3656 37.2277 38.6748C37.2284 39.5338 37.3496 40.6662 37.6503 41.7726C38.0673 43.3071 38.7854 44.6307 39.8386 45.193C41.371 44.5363 43.0767 44.0328 44.9091 43.8235C46.2527 43.67 47.4018 44.2839 48.0056 45.2375C48.6139 46.198 48.6521 47.4803 47.8314 48.583C47.111 49.5511 46.1636 50.4426 44.9626 50.923C43.5123 51.5031 41.2096 51.607 38.9997 51.5288C36.8073 51.4512 34.6121 51.1893 33.2227 50.9656C31.8324 51.2018 29.636 51.4785 27.4423 51.5604C25.232 51.643 22.9243 51.5336 21.4695 50.9193C20.4323 50.4814 19.6026 49.7482 18.9538 48.9312C18.0471 47.7895 18.1245 46.4711 18.8176 45.5134C19.4983 44.5728 20.7477 44.0071 22.1381 44.23C23.5774 44.4608 25.1251 44.8335 26.6582 45.4045C27.6911 44.8105 28.3376 43.4977 28.6683 41.9657C28.9354 40.7282 28.9726 39.4534 28.8877 38.5378C27.8912 39.1246 26.8415 39.5918 25.8294 39.9556C24.6028 40.3965 23.368 40.1356 22.5201 39.4197C21.6666 38.699 21.2286 37.535 21.5685 36.2535C21.9268 34.9026 22.5534 33.4861 23.6125 32.3697C24.8831 31.0305 26.0396 30.2823 27.0327 29.6399C27.1549 29.5608 27.2747 29.4833 27.3919 29.4065C28.4511 28.7126 29.3031 28.076 30.027 26.8007C30.2223 26.4565 30.4452 26.1622 30.6906 25.9152C29.1977 24.4561 27.8135 22.2323 28.0246 19.4054C28.1856 17.2511 29.1067 15.874 30.2108 15.0521ZM31.447 26.5739C31.2505 26.7621 31.0643 26.9989 30.8967 27.2943C30.0548 28.7776 29.0429 29.5203 27.9399 30.243C27.8196 30.3218 27.6983 30.4003 27.5759 30.4796L27.5752 30.48C26.5855 31.1209 25.5229 31.8091 24.338 33.058C23.431 34.014 22.8667 35.2598 22.5351 36.5098C22.2964 37.4097 22.6008 38.179 23.1652 38.6556C23.7353 39.1369 24.594 39.337 25.4912 39.0145C26.6717 38.5903 27.8899 38.0238 28.9929 37.2937C30.7396 36.1375 32.1669 34.5928 32.7395 32.5772L33.1869 31.0022L33.6957 32.5585C34.1036 33.8061 35.1915 35.7445 37.1062 37.325C38.1474 38.1845 39.4307 38.9364 40.9809 39.4161C42.712 39.9517 44.3621 38.3903 43.9352 36.6096C43.6472 35.4086 43.1309 34.3035 42.2072 33.0035C41.2747 31.6911 40.1403 30.9742 38.9822 30.2424L38.9459 30.2195C37.7882 29.4878 36.5836 28.7217 35.7687 27.2955C35.6228 27.0403 35.3755 26.7754 35.0502 26.5443C33.9747 27.3065 32.5385 27.341 31.447 26.5739ZM24.2168 18.5384C24.4586 18.405 24.5465 18.1008 24.4131 17.8591C24.2797 17.6173 23.9755 17.5294 23.7337 17.6628C21.4966 18.8971 18.4519 21.4817 16.5253 25.2544C14.5892 29.0458 13.7925 34.0203 16.052 39.9743C16.15 40.2325 16.4387 40.3624 16.6969 40.2644C16.9551 40.1664 17.0849 39.8777 16.987 39.6195C14.8326 33.9425 15.6017 29.2618 17.4159 25.7092C19.2395 22.138 22.1296 19.69 24.2168 18.5384ZM42.8684 17.6697C42.6304 17.5296 42.3239 17.609 42.1839 17.847C42.0438 18.085 42.1232 18.3914 42.3611 18.5315C44.4663 19.7705 47.3712 22.3248 49.1899 25.9289C50.9991 29.5144 51.7403 34.1481 49.5324 39.6096C49.4289 39.8656 49.5526 40.157 49.8086 40.2605C50.0646 40.364 50.3561 40.2404 50.4596 39.9843C52.7848 34.2323 52.01 29.2978 50.0826 25.4784C48.1647 21.6776 45.1124 18.9905 42.8684 17.6697ZM29.6458 42.1767C29.9809 40.6244 29.9887 38.9982 29.8208 37.9401C31.2349 36.9543 32.485 35.682 33.2444 34.0694C33.8448 35.2751 34.8322 36.6872 36.2597 37.919C36.1649 38.9357 36.2737 40.5206 36.6853 42.0348C37.0559 43.3986 37.7041 44.8216 38.778 45.6844C36.3219 46.9088 34.3967 48.4784 33.2299 49.7052C31.6648 47.9693 29.7459 46.7261 27.7514 45.8479C28.7819 44.9544 29.3524 43.5358 29.6458 42.1767ZM21.9798 45.2174C25.4401 45.7721 29.4241 47.1578 32.2398 50.1083C30.9162 50.3024 29.1574 50.4957 27.4049 50.5611C25.1914 50.6438 23.0878 50.5171 21.8585 49.9981C21.015 49.642 20.3118 49.0333 19.7369 48.3094C19.119 47.5312 19.188 46.7072 19.6277 46.0996C20.0798 45.4749 20.9494 45.0522 21.9798 45.2174ZM45.0226 44.817C40.175 45.3708 36.2381 48.1218 34.2372 50.1057C35.557 50.2878 37.299 50.468 39.035 50.5294C41.2489 50.6078 43.3575 50.488 44.5912 49.9945C45.5655 49.6048 46.3771 48.8622 47.0292 47.986C47.595 47.2258 47.5546 46.3942 47.1608 45.7725C46.7626 45.1437 45.9863 44.707 45.0226 44.817Z" fill="white"/>
</svg>
